<svg id="_x31__x2C_5" enable-background="new 0 0 36 36" height="512" viewBox="0 0 36 36" width="512" xmlns="http://www.w3.org/2000/svg"><g><path d="m31.833 8.377c0 6.917 3.583 11.667 3.583 15s-1.916 10.333-17.249 10.333-17.584-9.417-17.584-13.083c0-17.167 31.25-24.5 31.25-12.25z" fill="#efefef"/><g><g><path d="m27.467 5.967h1v2h-1z" fill="#a4afc1" transform="matrix(.707 -.707 .707 .707 3.265 21.816)"/></g><g><path d="m31.533 10.033h1v2h-1z" fill="#a4afc1" transform="matrix(.707 -.707 .707 .707 1.581 25.882)"/></g><g><path d="m30.856 6.467h2v1h-2z" fill="#a4afc1" transform="matrix(.707 -.707 .707 .707 4.404 24.566)"/></g></g><g fill="#f3f3f1"><circle cx="18" cy="8" r="1.25"/><circle cx="28" cy="28" r="1.25"/><circle cx="8" cy="28" r="1.25"/></g><path d="m18 17.25 9.25-3.25-9.25-3.25-9.25 3.25z" fill="#2fdf84"/><path d="m18 29.25v-12l-9.25-3.25v12z" fill="#f3f3f1"/><path d="m18 29.25v-12l9.25-3.25v12z" fill="#f3f3f1"/><path d="m19 8c0-.19.049-.365.125-.526-.2-.425-.625-.724-1.125-.724-.69 0-1.25.56-1.25 1.25s.56 1.25 1.25 1.25c.5 0 .925-.299 1.125-.724-.076-.161-.125-.336-.125-.526z" fill="#d5dbe1"/><path d="m29 28c0-.19.049-.365.125-.526-.2-.425-.625-.724-1.125-.724-.69 0-1.25.56-1.25 1.25s.56 1.25 1.25 1.25c.5 0 .925-.299 1.125-.724-.076-.161-.125-.336-.125-.526z" fill="#d5dbe1"/><path d="m9 28c0-.19.049-.365.125-.526-.2-.425-.625-.724-1.125-.724-.69 0-1.25.56-1.25 1.25s.56 1.25 1.25 1.25c.5 0 .925-.299 1.125-.724-.076-.161-.125-.336-.125-.526z" fill="#d5dbe1"/><path d="m12.5 14 7.375-2.605-1.875-.645-9.25 3.25 9.25 3.25 1.875-.645z" fill="#00b871"/><path d="m11 26v-11.209l-2.25-.791v12l9.25 3.25v-.791z" fill="#d5dbe1"/><path d="m20.25 17.25 7-2.459v-.791l-9.25 3.25v12l2.25-.791z" fill="#d5dbe1"/><g><path d="m18 18c-.084 0-.168-.014-.249-.042l-9.25-3.25c-.3-.106-.501-.39-.501-.708s.201-.602.501-.708l6-2.11.498 1.415-3.987 1.403 6.988 2.455 6.988-2.455-3.987-1.402.498-1.415 6 2.11c.3.105.501.389.501.707s-.201.602-.501.708l-9.25 3.25c-.081.028-.165.042-.249.042z"/></g><g><path d="m26.5 14h1.5v8.65h-1.5z"/></g><g><path d="m8 14h1.5v8.65h-1.5z"/></g><g><path d="m18 30c-.084 0-.168-.014-.249-.042l-4.92-1.73.498-1.415 4.671 1.642 4.671-1.643.498 1.415-4.92 1.73c-.081.029-.165.043-.249.043z"/></g><g><path d="m17.25 9.5h1.5v3.75h-1.5z"/></g><g><path d="m25.095 24.296h1.5v3.097h-1.5z" transform="matrix(.707 -.707 .707 .707 -10.705 25.845)"/></g><g><path d="m8.607 25.095h3.097v1.5h-3.097z" transform="matrix(.707 -.707 .707 .707 -15.301 14.751)"/></g><g><path d="m17.25 17.5h1.5v11.5h-1.5z"/></g><g><path d="m18 10c-1.103 0-2-.897-2-2s.897-2 2-2 2 .897 2 2-.897 2-2 2zm0-2.5c-.276 0-.5.224-.5.5s.224.5.5.5.5-.224.5-.5-.224-.5-.5-.5z"/></g><g><path d="m28 30c-1.103 0-2-.897-2-2s.897-2 2-2 2 .897 2 2-.897 2-2 2zm0-2.5c-.276 0-.5.224-.5.5s.224.5.5.5.5-.224.5-.5-.224-.5-.5-.5z"/></g><g><path d="m8 30c-1.103 0-2-.897-2-2s.897-2 2-2 2 .897 2 2-.897 2-2 2zm0-2.5c-.276 0-.5.224-.5.5s.224.5.5.5.5-.224.5-.5-.224-.5-.5-.5z"/></g></g></svg>